<?xml version="1.0" encoding="UTF-8"?><svg id="Layer_1" xmlns="http://www.w3.org/2000/svg" viewBox="0 0 605.54 104.28"><defs><style>.cls-1{fill:#5f63d4;stroke-width:0px;}</style></defs><path class="cls-1" d="m25.41,80.85c-3.3,0-6.47-.75-9.52-2.25-3.04-1.5-5.76-3.56-8.14-6.16-2.38-2.6-4.27-5.59-5.66-8.96-1.39-3.37-2.09-6.89-2.09-10.56s.7-6.93,2.09-10.23c1.39-3.3,3.3-6.25,5.72-8.85,2.42-2.6,5.15-4.68,8.19-6.22,3.04-1.54,6.18-2.31,9.41-2.31,3.52,0,6.56.75,9.13,2.25,2.57,1.5,4.69,3.54,6.38,6.1,1.69,2.57,2.95,5.5,3.8,8.8.84,3.3,1.3,6.71,1.38,10.23.07,3.59-.29,7.06-1.1,10.4-.81,3.34-2.05,6.34-3.74,9.02-1.69,2.68-3.83,4.8-6.44,6.38-2.6,1.58-5.74,2.37-9.4,2.37Zm2.64-19.8c1.39,0,2.68-.37,3.85-1.1,1.17-.73,2.13-1.71,2.86-2.92.73-1.21,1.1-2.51,1.1-3.91,0-1.47-.35-2.79-1.04-3.96-.7-1.17-1.63-2.13-2.8-2.86-1.17-.73-2.53-1.1-4.07-1.1s-2.8.35-4.01,1.04c-1.21.7-2.16,1.65-2.86,2.86-.7,1.21-1.04,2.55-1.04,4.01s.37,2.7,1.1,3.91c.73,1.21,1.72,2.18,2.97,2.92,1.25.73,2.57,1.1,3.96,1.1Zm18.04,19.91c-2.93,0-5.13-.44-6.6-1.32-1.47-.88-2.46-2.27-2.97-4.18V10.01c0-1.61.09-3.19.27-4.73.18-1.54.94-2.81,2.26-3.8,1.32-.99,3.63-1.48,6.93-1.48s5.74.48,7.1,1.43c1.36.95,2.18,2.18,2.48,3.69.29,1.5.44,3.1.44,4.78v61.05c0,1.61-.15,3.19-.44,4.73-.29,1.54-1.12,2.8-2.48,3.79-1.36.99-3.69,1.48-6.98,1.48Z"/><path class="cls-1" d="m95.26,82.06c-3.37,0-6.78-.68-10.23-2.04-3.45-1.36-6.62-3.3-9.51-5.83-2.9-2.53-5.21-5.57-6.93-9.13-1.72-3.56-2.58-7.53-2.58-11.94,0-4.03.77-7.81,2.31-11.33s3.65-6.62,6.32-9.3c2.68-2.68,5.76-4.78,9.24-6.32,3.48-1.54,7.21-2.31,11.17-2.31,5.43,0,10.34,1.3,14.74,3.9,4.4,2.6,7.92,6.1,10.56,10.51,2.64,4.4,3.96,9.31,3.96,14.74,0,4.62-.88,8.73-2.64,12.32-1.76,3.59-4.07,6.64-6.93,9.13-2.86,2.49-6,4.38-9.4,5.67-3.41,1.28-6.77,1.92-10.07,1.92Zm-.22-20.13c1.1,0,2.36-.27,3.79-.83,1.43-.55,2.68-1.48,3.74-2.8,1.06-1.32,1.59-3.12,1.59-5.39,0-1.83-.38-3.41-1.15-4.73-.77-1.32-1.85-2.35-3.25-3.08-1.39-.73-3.01-1.1-4.84-1.1-1.61,0-3.08.39-4.4,1.16-1.32.77-2.38,1.83-3.19,3.19-.81,1.36-1.21,2.92-1.21,4.67,0,2.2.51,3.96,1.54,5.28,1.03,1.32,2.24,2.25,3.63,2.8,1.39.55,2.64.83,3.74.83Z"/><path class="cls-1" d="m144.21,81.07c-3.3,0-5.65-.5-7.04-1.49-1.39-.99-2.22-2.27-2.48-3.85-.26-1.58-.39-3.17-.39-4.78v-35.86c0-1.69.15-3.28.44-4.78.29-1.5,1.14-2.73,2.53-3.69,1.39-.95,3.74-1.43,7.04-1.43s5.52.44,6.88,1.32c1.36.88,2.18,1.85,2.48,2.92.29,1.06.44,1.89.44,2.47l-1.76-.66c1.17-1.32,2.33-2.42,3.47-3.3,1.14-.88,2.49-1.65,4.07-2.31,1.58-.66,3.35-.99,5.33-.99.66,0,1.48.06,2.48.17.99.11,2.05.31,3.19.6,1.14.29,2.2.73,3.19,1.32.99.59,1.8,1.36,2.42,2.31.62.95.94,2.13.94,3.52,0,3.67-.79,6.78-2.36,9.35-1.58,2.57-3.65,3.85-6.22,3.85-1.39,0-2.38-.09-2.97-.28-.59-.18-1.01-.37-1.27-.55-.26-.18-.55-.37-.88-.55-.33-.18-.94-.28-1.81-.28-1.1,0-2.11.13-3.03.39-.92.26-1.72.64-2.42,1.15-.7.51-1.23,1.12-1.59,1.81-.37.7-.55,1.45-.55,2.26v21.45c0,1.61-.15,3.19-.44,4.73-.29,1.54-1.14,2.79-2.53,3.74-1.39.95-3.78,1.43-7.15,1.43Z"/><path class="cls-1" d="m196.68,81.07c-3.3,0-5.65-.5-7.04-1.49-1.39-.99-2.22-2.25-2.48-3.79-.26-1.54-.38-3.12-.38-4.73v-35.97c0-1.69.15-3.28.44-4.78.29-1.5,1.14-2.73,2.53-3.69,1.39-.95,3.78-1.43,7.15-1.43s5.7.64,7.2,1.93c1.5,1.28,2.26,3.35,2.26,6.21l-1.87-.55c1.1-1.54,2.18-2.82,3.25-3.85,1.06-1.03,2.36-1.93,3.9-2.7s3.3-1.15,5.28-1.15c2.27,0,4.36.29,6.27.88,1.91.59,3.65,1.49,5.22,2.7,1.58,1.21,2.95,2.69,4.12,4.45.81-.95,1.91-2.05,3.3-3.3,1.39-1.25,3.06-2.35,5-3.3,1.94-.95,4.12-1.43,6.54-1.43,4.33,0,8.01,1.1,11.06,3.3,3.04,2.2,5.35,5.39,6.93,9.57,1.58,4.18,2.37,9.24,2.37,15.18v17.93c0,1.61-.15,3.19-.44,4.73-.29,1.54-1.14,2.81-2.53,3.79-1.39.99-3.78,1.49-7.15,1.49s-5.65-.51-7.04-1.54c-1.39-1.03-2.22-2.31-2.48-3.85-.26-1.54-.38-3.12-.38-4.73v-17.93c0-1.76-.2-3.21-.6-4.34-.4-1.14-.99-2-1.76-2.59-.77-.59-1.74-.88-2.91-.88-1.25,0-2.26.26-3.03.77-.77.51-1.32,1.34-1.65,2.48-.33,1.14-.5,2.69-.5,4.67v17.93c0,1.61-.15,3.19-.44,4.73-.29,1.54-1.14,2.81-2.53,3.79-1.39.99-3.78,1.49-7.15,1.49s-5.65-.51-7.04-1.54c-1.39-1.03-2.22-2.31-2.48-3.85-.26-1.54-.39-3.12-.39-4.73v-17.93c0-1.76-.18-3.23-.55-4.4-.37-1.17-.94-2.04-1.71-2.58-.77-.55-1.78-.83-3.02-.83-1.47,0-2.57.37-3.3,1.1s-1.23,1.69-1.49,2.86c-.26,1.17-.38,2.46-.38,3.85v18.15c0,1.61-.15,3.19-.44,4.73-.29,1.54-1.14,2.79-2.53,3.74-1.39.95-3.78,1.43-7.15,1.43Z"/><path class="cls-1" d="m302.94,80.85c-3.3,0-6.47-.75-9.51-2.25-3.04-1.5-5.76-3.56-8.14-6.16-2.38-2.6-4.27-5.59-5.66-8.96-1.39-3.37-2.09-6.89-2.09-10.56s.7-6.93,2.09-10.23c1.39-3.3,3.3-6.25,5.72-8.85,2.42-2.6,5.15-4.68,8.19-6.22,3.04-1.54,6.18-2.31,9.4-2.31,3.52,0,6.56.75,9.13,2.25,2.57,1.5,4.69,3.54,6.38,6.1,1.69,2.57,2.95,5.5,3.79,8.8.84,3.3,1.3,6.71,1.38,10.23.07,3.59-.29,7.06-1.1,10.4-.81,3.34-2.05,6.34-3.74,9.02-1.69,2.68-3.83,4.8-6.44,6.38-2.6,1.58-5.74,2.37-9.41,2.37Zm2.64-19.8c1.39,0,2.68-.37,3.85-1.1,1.17-.73,2.13-1.71,2.86-2.92.73-1.21,1.1-2.51,1.1-3.91,0-1.47-.35-2.79-1.04-3.96-.7-1.17-1.63-2.13-2.8-2.86-1.17-.73-2.53-1.1-4.07-1.1s-2.8.35-4.01,1.04c-1.21.7-2.16,1.65-2.86,2.86-.7,1.21-1.04,2.55-1.04,4.01s.37,2.7,1.1,3.91c.73,1.21,1.72,2.18,2.97,2.92,1.25.73,2.57,1.1,3.96,1.1Zm18.04,19.91c-2.93,0-5.13-.44-6.6-1.32-1.47-.88-2.46-2.27-2.97-4.18V10.01c0-1.61.09-3.19.28-4.73.18-1.54.93-2.81,2.25-3.8,1.32-.99,3.63-1.48,6.93-1.48s5.74.48,7.09,1.43c1.36.95,2.18,2.18,2.48,3.69.29,1.5.44,3.1.44,4.78v61.05c0,1.61-.15,3.19-.44,4.73-.29,1.54-1.12,2.8-2.48,3.79-1.36.99-3.68,1.48-6.98,1.48Z"/><path class="cls-1" d="m355.73,19.91c-3.3,0-5.65-.5-7.04-1.48-1.39-.99-2.22-2.26-2.47-3.8-.26-1.54-.39-3.12-.39-4.73s.15-3.28.44-4.78c.29-1.5,1.14-2.73,2.53-3.69,1.39-.95,3.74-1.43,7.04-1.43s5.63.5,6.98,1.48c1.36.99,2.18,2.26,2.48,3.8.29,1.54.44,3.12.44,4.73s-.15,3.19-.44,4.73c-.29,1.54-1.12,2.79-2.48,3.74-1.36.95-3.72,1.43-7.09,1.43Zm0,61.16c-3.3,0-5.65-.5-7.04-1.49-1.39-.99-2.22-2.25-2.47-3.79-.26-1.54-.39-3.12-.39-4.73v-35.86c0-1.61.15-3.17.44-4.68.29-1.5,1.14-2.75,2.53-3.74,1.39-.99,3.74-1.48,7.04-1.48s5.63.49,6.98,1.48c1.36.99,2.18,2.25,2.48,3.79.29,1.54.44,3.15.44,4.84v35.75c0,1.61-.15,3.19-.44,4.73-.29,1.54-1.12,2.79-2.48,3.74-1.36.95-3.72,1.43-7.09,1.43Z"/><path class="cls-1" d="m401.16,79.42c-3.23,0-6.33-.73-9.29-2.2-2.97-1.47-5.63-3.48-7.98-6.05-2.35-2.57-4.2-5.48-5.55-8.74-1.36-3.26-2.04-6.69-2.04-10.29s.68-6.78,2.04-10.01c1.36-3.23,3.23-6.1,5.61-8.63,2.38-2.53,5.06-4.55,8.03-6.05,2.97-1.5,6.03-2.26,9.19-2.26s5.88.66,7.97,1.98c2.09,1.32,3.74,3.19,4.95,5.61,1.21,2.42,2.07,5.3,2.58,8.63.51,3.34.77,7.02.77,11.06,0,5.57-.46,10.38-1.38,14.41-.92,4.03-2.55,7.13-4.89,9.3-2.35,2.16-5.68,3.24-10.01,3.24Zm2.75,24.86c-2.57,0-5.19-.35-7.87-1.05-2.68-.7-5.15-1.63-7.42-2.8-2.27-1.17-4.11-2.44-5.5-3.79-1.39-1.36-2.09-2.7-2.09-4.02,0-1.47.28-2.82.83-4.07.55-1.25,1.38-2.46,2.48-3.63,1.17-1.25,2.2-2.24,3.08-2.97.88-.73,1.94-1.1,3.19-1.1,1.1,0,2.07.26,2.92.77.84.51,1.71,1.08,2.58,1.71.88.62,1.96,1.19,3.25,1.71,1.28.51,2.92.77,4.9.77,1.1,0,2.13-.24,3.08-.72.95-.48,1.78-1.14,2.48-1.98.7-.84,1.26-1.83,1.71-2.97.44-1.14.66-2.37.66-3.69V31.13c.29-2.2,1.21-3.78,2.75-4.73,1.54-.95,3.89-1.43,7.04-1.43s5.5.48,6.82,1.43c1.32.95,2.11,2.18,2.37,3.69.26,1.5.38,3.06.38,4.68v42.35c0,4.33-.83,8.18-2.47,11.55-1.65,3.37-3.83,6.21-6.54,8.52-2.71,2.31-5.68,4.07-8.91,5.28-3.23,1.21-6.45,1.82-9.68,1.82Zm-.11-44.22c1.39,0,2.66-.37,3.79-1.1,1.14-.73,2.05-1.69,2.75-2.86.7-1.17,1.04-2.42,1.04-3.74,0-1.47-.35-2.79-1.04-3.96-.7-1.17-1.63-2.11-2.8-2.8-1.17-.7-2.49-1.04-3.96-1.04s-2.68.37-3.85,1.1c-1.17.73-2.11,1.69-2.8,2.86-.7,1.17-1.04,2.46-1.04,3.85,0,1.32.37,2.57,1.1,3.74.73,1.17,1.71,2.13,2.92,2.86,1.21.73,2.51,1.1,3.91,1.1Z"/><path class="cls-1" d="m471.67,82.28c-5.5,0-10.16-.9-13.97-2.7-3.81-1.8-6.89-4.14-9.24-7.04-2.35-2.9-4.07-6.03-5.17-9.4-1.1-3.37-1.65-6.64-1.65-9.79,0-5.79,1.28-10.89,3.85-15.29,2.57-4.4,6.12-7.85,10.67-10.34,4.55-2.49,9.75-3.74,15.62-3.74,4.55,0,8.43.73,11.66,2.2,3.23,1.47,5.85,3.34,7.87,5.61,2.02,2.27,3.5,4.69,4.45,7.26.95,2.57,1.43,4.95,1.43,7.15,0,4.18-1.03,7.37-3.08,9.57-2.05,2.2-4.69,3.3-7.92,3.3h-23.43c.29,1.17.9,2.18,1.82,3.02.92.84,2.07,1.5,3.46,1.98,1.39.48,2.9.71,4.51.71s3.04-.09,4.29-.27c1.25-.18,2.33-.42,3.25-.71.92-.29,1.76-.59,2.53-.88.77-.29,1.47-.53,2.09-.71.62-.18,1.23-.27,1.82-.27,1.32,0,2.53.44,3.63,1.32,1.1.88,2.09,2.2,2.97,3.96.51.95.88,1.85,1.1,2.7.22.84.33,1.63.33,2.36,0,2.2-.9,4.03-2.69,5.5-1.8,1.47-4.38,2.58-7.75,3.35-3.37.77-7.52,1.16-12.43,1.16Zm-8.91-33.55h12.32c1.03,0,1.78-.22,2.25-.66.48-.44.71-1.1.71-1.98,0-.95-.27-1.76-.82-2.42-.55-.66-1.3-1.15-2.25-1.48-.95-.33-2.09-.5-3.41-.5-1.76,0-3.3.35-4.62,1.04-1.32.7-2.33,1.58-3.03,2.64-.7,1.06-1.08,2.18-1.16,3.35Z"/><path class="cls-1" d="m528.1,82.06c-2.05,0-4.34-.24-6.88-.71-2.53-.48-4.99-1.17-7.37-2.09-2.38-.92-4.34-2-5.88-3.24-1.54-1.25-2.31-2.68-2.31-4.29,0-.73.17-1.56.49-2.48.33-.92.79-1.92,1.38-3.02s1.32-2.27,2.2-3.52c.51-.73,1.12-1.28,1.82-1.65.7-.37,1.52-.55,2.47-.55,1.32,0,2.6.27,3.85.83,1.25.55,2.49,1.17,3.74,1.87,1.25.7,2.55,1.32,3.91,1.87,1.36.55,2.8.83,4.34.83,1.39,0,2.44-.15,3.14-.44.7-.29,1.04-.73,1.04-1.32s-.24-1.06-.71-1.43c-.48-.37-1.14-.68-1.98-.94-.84-.26-1.82-.5-2.92-.71-1.1-.22-2.27-.48-3.52-.77-1.25-.29-2.53-.66-3.85-1.1-1.69-.51-3.34-1.19-4.95-2.04-1.61-.84-3.06-1.96-4.34-3.35-1.28-1.39-2.31-3.08-3.08-5.06-.77-1.98-1.16-4.4-1.16-7.26,0-3.81.88-7,2.64-9.57,1.76-2.57,4.36-4.51,7.81-5.83,3.45-1.32,7.7-1.98,12.76-1.98,1.25,0,2.49.07,3.74.22,1.25.15,2.51.37,3.79.66,1.28.29,2.57.68,3.85,1.15,1.28.48,2.58,1.01,3.9,1.6,2.71,1.17,4.11,2.8,4.18,4.9.07,2.09-.7,4.27-2.31,6.54-.88,1.39-1.78,2.44-2.69,3.13-.92.7-1.85,1.04-2.81,1.04-1.17,0-2.46-.33-3.85-.99-1.39-.66-2.86-1.32-4.4-1.98s-3.08-.99-4.62-.99c-.88,0-1.63.09-2.25.28-.62.18-1.08.44-1.38.77-.29.33-.44.71-.44,1.15,0,.81.27,1.45.83,1.92.55.48,1.28.86,2.2,1.16.92.29,1.98.55,3.19.77,1.21.22,2.51.44,3.91.66,1.91.29,3.87.75,5.88,1.38,2.02.62,3.87,1.52,5.55,2.7,1.69,1.17,3.04,2.79,4.07,4.84,1.03,2.05,1.54,4.73,1.54,8.03,0,6.23-2.07,10.96-6.21,14.19-4.14,3.23-10.25,4.84-18.32,4.84Z"/><path class="cls-1" d="m567.59,25.85h12.87l15.18-.55c1.61,0,3.17.15,4.67.44,1.5.29,2.75,1.14,3.74,2.53.99,1.39,1.48,3.78,1.48,7.15,0,3.08-.5,5.32-1.48,6.71-.99,1.39-2.24,2.27-3.74,2.64-1.5.37-3.1.55-4.79.55l-13.97-.33h-14.41c-2.49-.15-4.22-.95-5.17-2.42-.95-1.47-1.43-3.89-1.43-7.26,0-3.15.59-5.52,1.76-7.1,1.17-1.58,2.93-2.36,5.28-2.36Zm25.08,55.22c-3.89,0-7.26-.44-10.12-1.32-2.86-.88-5.22-2.24-7.09-4.07-1.87-1.83-3.26-4.14-4.18-6.93-.92-2.79-1.38-6.05-1.38-9.79V16.28c0-1.69.15-3.25.44-4.68.29-1.43,1.14-2.6,2.53-3.52,1.39-.92,3.74-1.38,7.04-1.38s5.54.5,6.93,1.49c1.39.99,2.24,2.25,2.53,3.79.29,1.54.44,3.12.44,4.73v41.25c0,.81.05,1.48.17,2.03.11.55.27.97.49,1.27.22.29.51.51.88.66.37.15.84.22,1.43.22,1.91,0,3.61.15,5.12.44,1.5.29,2.68,1.06,3.52,2.31.84,1.25,1.27,3.34,1.27,6.27,0,3.3-.51,5.65-1.54,7.04-1.03,1.39-2.31,2.22-3.85,2.48-1.54.26-3.08.39-4.62.39Z"/></svg>