<?xml version="1.0" encoding="UTF-8" standalone="no"?>
<!DOCTYPE svg  PUBLIC '-//W3C//DTD SVG 1.1//EN'  'http://www.w3.org/Graphics/SVG/1.1/DTD/svg11.dtd'>
<svg stroke-linejoin="round" xmlns="http://www.w3.org/2000/svg" clip-rule="evenodd" fill-rule="evenodd" xml:space="preserve" height="100%" width="100%" version="1.1" xmlns:serif="http://www.serif.com/" stroke-miterlimit="1.4142" xmlns:xlink="http://www.w3.org/1999/xlink" viewBox="0 0 275 51">
    <g transform="translate(-877.33 -893.77)">
        <path fill="#ffffff" d="m895.48 895.12c0.27-0.5 0.72-0.85 1.35-1.05s1.47-0.3 2.53-0.3c1.04 0 1.89 0.1 2.52 0.3s1.08 0.55 1.32 1.05c0.26 0.5 0.4 0.94 0.46 1.33 0.04 0.38 0.07 0.95 0.07 1.72v29.85c0 0.77-0.03 1.34-0.07 1.73-0.06 0.38-0.21 0.81-0.48 1.27-0.5 0.9-1.91 1.35-4.22 1.35-2.32 0-3.61-0.81-3.88-2.45-1.4 1.6-3.35 2.4-5.85 2.4-3 0-5.73-1.31-8.2-3.92-2.47-2.62-3.7-5.67-3.7-9.15 0-3.49 1.24-6.55 3.73-9.18 2.48-2.63 5.2-3.95 8.17-3.95 2.47 0 4.38 0.84 5.75 2.5v-10.5c0-0.76 0.02-1.34 0.08-1.72 0.04-0.39 0.19-0.81 0.42-1.28zm-8.1 27.15c0.87 0.9 1.92 1.35 3.15 1.35s2.26-0.45 3.07-1.35c0.82-0.9 1.23-1.89 1.23-2.97 0-1.09-0.39-2.1-1.17-3.03-0.79-0.93-1.85-1.4-3.18-1.4s-2.4 0.46-3.2 1.38c-0.8 0.91-1.2 1.92-1.2 3.02s0.43 2.1 1.3 3z" fill-rule="nonzero"/>
        <path fill="#ffffff" d="m909.48 919.27c0-4 1.4-7.3 4.2-9.9s6-3.9 9.6-3.9 6.78 1.29 9.55 3.88c2.77 2.58 4.15 5.87 4.15 9.87 0 2.77-0.72 5.23-2.15 7.38s-3.17 3.73-5.23 4.75c-2.04 1.01-4.17 1.52-6.37 1.52s-4.33-0.54-6.4-1.62c-2.07-1.09-3.81-2.69-5.23-4.8-1.41-2.12-2.12-4.51-2.12-7.18zm10.45 3.6c1.07 0.8 2.15 1.2 3.25 1.2s2.2-0.41 3.3-1.25c1.1-0.83 1.65-2.06 1.65-3.7 0-1.63-0.52-2.85-1.55-3.65s-2.15-1.2-3.35-1.2-2.32 0.42-3.35 1.25c-1.03 0.84-1.55 2.06-1.55 3.68 0 1.61 0.53 2.84 1.6 3.67z" fill-rule="nonzero"/>
        <path fill="#ffffff" d="m960.63 906.37c0.63 0.2 1.16 0.54 1.57 1.03 0.42 0.48 0.63 1.26 0.63 2.32 0 1.07-0.32 2.24-0.95 3.5-0.63 1.27-1.55 1.9-2.75 1.9-0.6 0-1.17-0.13-1.73-0.4-0.54-0.26-1.27-0.4-2.17-0.4s-1.74 0.32-2.53 0.95c-0.78 0.63-1.17 1.4-1.17 2.3v10.5c0 0.77-0.03 1.34-0.07 1.73-0.06 0.38-0.21 0.82-0.48 1.32-0.5 0.87-1.8 1.3-3.9 1.3-1.6 0-2.75-0.28-3.45-0.85-0.53-0.47-0.83-1.18-0.9-2.15v-1.45-17.55c0-0.76 0.03-1.34 0.07-1.72 0.06-0.39 0.2-0.81 0.43-1.28 0.47-0.9 1.77-1.35 3.9-1.35 2 0 3.25 0.39 3.75 1.15 0.37 0.54 0.55 1.08 0.55 1.65 0.17-0.23 0.41-0.51 0.73-0.85 0.31-0.33 0.99-0.78 2.02-1.35s1.94-0.85 2.72-0.85c0.79 0 1.45 0.04 1.98 0.13 0.53 0.08 1.12 0.22 1.75 0.42z" fill-rule="nonzero"/>
        <path fill="#ffffff" d="m976.68 909.57c1.57-2.37 3.45-3.55 5.65-3.55 3.4 0 5.93 1.45 7.6 4.35 0.37-0.5 0.81-1.02 1.33-1.57 0.51-0.55 1.34-1.15 2.47-1.8s2.3-0.98 3.5-0.98c2.67 0 4.87 1.03 6.67 3.08s2.7 5.44 2.7 10.17v8.75 1.73c-0.1 0.38-0.2 0.82-0.5 1.32-0.5 0.9-1.7 1.35-3.9 1.35-2.1 0-3.35-0.46-3.82-1.4-0.23-0.5-0.38-0.94-0.42-1.32-0.06-0.39-0.08-0.96-0.08-1.73v-8.75c0-2.9-1.03-4.35-3.1-4.35-1.17 0-1.96 0.39-2.38 1.15-0.41 0.77-0.62 1.85-0.62 3.25v8.75c0 0.8-0.02 1.38-0.08 1.75-0.04 0.37-0.2 0.8-0.47 1.3-0.47 0.9-1.77 1.35-3.9 1.35-2.1 0-3.38-0.46-3.85-1.4-0.23-0.5-0.38-0.94-0.42-1.32-0.06-0.39-0.08-0.96-0.08-1.73v-8.75c0-2.9-1.03-4.35-3.1-4.35-2 0-3 1.45-3 4.35v8.85c0 0.77-0.02 1.34-0.08 1.73-0.04 0.38-0.2 0.82-0.47 1.32-0.5 0.87-1.8 1.3-3.9 1.3s-3.38-0.45-3.85-1.35c-0.23-0.5-0.38-0.93-0.42-1.3-0.06-0.37-0.08-0.95-0.08-1.75v-17.6c0-0.76 0.02-1.34 0.08-1.72 0.04-0.39 0.2-0.81 0.47-1.28 0.5-0.9 1.68-1.35 3.55-1.35s3.08 0.3 3.65 0.9 0.85 1.47 0.85 2.6z" fill-rule="nonzero"/>
        <path fill="#ffffff" d="m1013.3 930.07c-0.6-0.4-0.9-1.03-0.9-1.9s0.6-2.18 1.9-3.95c0.3-0.56 0.9-0.85 1.8-0.85 0.8 0 1.9 0.41 3.3 1.23 1.4 0.81 2.6 1.22 3.8 1.22 2 0 3-0.4 3-1.2 0-0.63-1.1-1.1-3.3-1.4-2.1-0.3-4.2-1.08-6.3-2.35-0.9-0.6-1.7-1.54-2.4-2.82-0.6-1.29-0.9-2.81-0.9-4.58 0-5.27 3.6-7.9 10.8-7.9 2.4 0 4.8 0.57 7.3 1.7 1.2 0.53 1.8 1.2 1.8 2s-0.4 1.79-1.1 2.95c-0.7 1.17-1.5 1.75-2.3 1.75-0.4 0-1.1-0.25-2.2-0.75s-2.2-0.75-3.5-0.75c-2 0-3 0.37-3 1.1 0 1 1.2 1.65 3.4 1.95 2.2 0.24 4.4 0.87 6.4 1.9 1 0.47 1.8 1.28 2.5 2.43 0.6 1.15 0.9 2.59 0.9 4.32s-0.3 3.21-0.9 4.43c-0.7 1.21-1.6 2.12-2.8 2.72-2.1 1.04-4.8 1.55-8 1.55s-6.3-0.93-9.3-2.8z" fill-rule="nonzero"/>
        <path fill="#ffffff" d="m1040.1 939.57v-29.2c0-0.77 0-1.33 0.1-1.7 0-0.37 0.2-0.78 0.4-1.25 0.4-0.9 1.6-1.35 3.3-1.35 1.8 0 3 0.23 3.6 0.68s1 1.11 1.1 1.97c1.2-1.73 3.2-2.6 6-2.6 2.7 0 5.2 1.28 7.7 3.85 2.4 2.57 3.6 5.55 3.6 8.95s-1.2 6.38-3.6 8.95-5 3.85-7.7 3.85c-2.8 0-4.7-0.76-6-2.3v10.1 1.7c-0.1 0.37-0.2 0.79-0.5 1.28-0.2 0.48-0.7 0.82-1.3 1.02s-1.4 0.3-2.4 0.3-1.9-0.1-2.5-0.3-1-0.53-1.3-1c-0.2-0.46-0.4-0.88-0.4-1.25-0.1-0.37-0.1-0.93-0.1-1.7zm9.9-23.55c-0.8 0.9-1.2 1.88-1.2 2.95s0.4 2.04 1.2 2.93c0.8 0.88 1.8 1.32 3 1.32s2.3-0.43 3.1-1.3c0.9-0.86 1.3-1.85 1.3-2.95s-0.4-2.09-1.2-2.97c-0.8-0.89-1.9-1.33-3.1-1.33-1.3 0-2.3 0.45-3.1 1.35z" fill-rule="nonzero"/>
        <g fill="#ffffff" transform="translate(202.83 .44985)" fill-rule="nonzero">
            <path d="m894.93 908.87c0.2-1.87 1.52-2.8 3.95-2.8 1.3 0 2.27 0.1 2.9 0.3s1.08 0.55 1.32 1.05c0.26 0.5 0.4 0.94 0.46 1.33 0.04 0.38 0.07 0.95 0.07 1.72v17.5c0 0.77-0.03 1.34-0.07 1.73-0.06 0.38-0.2 0.82-0.43 1.32-0.47 0.87-1.61 1.3-3.43 1.3-1.81 0-3.03-0.22-3.64-0.67-0.62-0.45-0.98-1.11-1.08-1.98-1.23 1.77-3.29 2.65-6.18 2.65-2.88 0-5.55-1.32-8.02-3.95s-3.7-5.69-3.7-9.17c0-3.49 1.24-6.54 3.72-9.15 2.49-2.62 5.21-3.93 8.18-3.93 1.13 0 2.17 0.2 3.1 0.6s1.58 0.78 1.95 1.13 0.67 0.69 0.9 1.02zm-9.1 10.4c0 1.1 0.43 2.09 1.3 2.98 0.87 0.88 1.92 1.32 3.15 1.32s2.26-0.45 3.08-1.35c0.81-0.9 1.22-1.89 1.22-2.97 0-1.09-0.39-2.09-1.18-3.03-0.78-0.93-1.83-1.4-3.14-1.4-1.32 0-2.39 0.47-3.2 1.4-0.82 0.94-1.23 1.95-1.23 3.05z"/>
            <path d="m918.73 909.57c1.57-2.37 3.45-3.55 5.65-3.55 3.4 0 5.93 1.45 7.6 4.35 0.37-0.5 0.81-1.02 1.32-1.57 0.52-0.55 1.35-1.15 2.48-1.8s2.3-0.98 3.5-0.98c2.67 0 4.9 1.03 6.7 3.08s2.7 5.44 2.7 10.17v8.75c0 0.77-0.02 1.34-0.08 1.73-0.04 0.38-0.2 0.82-0.47 1.32-0.43 0.9-1.72 1.35-3.85 1.35-2.1 0-3.38-0.46-3.85-1.4-0.23-0.5-0.37-0.94-0.43-1.32-0.04-0.39-0.07-0.96-0.07-1.73v-8.75c0-2.9-1.03-4.35-3.1-4.35-1.17 0-1.96 0.39-2.37 1.15-0.42 0.77-0.63 1.85-0.63 3.25v8.75c0 0.8-0.03 1.38-0.07 1.75-0.06 0.37-0.21 0.8-0.48 1.3-0.47 0.9-1.77 1.35-3.9 1.35-2.1 0-3.38-0.46-3.85-1.4-0.23-0.5-0.37-0.94-0.43-1.32-0.04-0.39-0.07-0.96-0.07-1.73v-8.75c0-2.9-1.03-4.35-3.1-4.35-2 0-3 1.45-3 4.35v8.85c0 0.77-0.03 1.34-0.07 1.73-0.06 0.38-0.21 0.82-0.48 1.32-0.5 0.87-1.8 1.3-3.9 1.3s-3.38-0.45-3.85-1.35c-0.23-0.5-0.37-0.93-0.43-1.3-0.04-0.37-0.07-0.95-0.07-1.75v-17.6c0-0.76 0.03-1.34 0.07-1.72 0.06-0.39 0.21-0.81 0.48-1.28 0.5-0.9 1.68-1.35 3.55-1.35s3.08 0.3 3.65 0.9 0.85 1.47 0.85 2.6z"/>
        </g>
        <g transform="matrix(1 0 0 .91039 -18.528 82.228)">
            <ellipse rx="4.547" ry="4.943" cy="929.43" cx="1091.6" fill="#ffffff"/>
        </g>
    </g>
</svg>
